<mxfile host="app.diagrams.net" modified="2024-05-17T07:47:07.014Z" agent="Mozilla/5.0 (Windows NT 10.0; Win64; x64) AppleWebKit/537.36 (KHTML, like Gecko) Chrome/123.0.0.0 Safari/537.36 OPR/109.0.0.0" etag="75IPZ-q5606G2QF64D2m" version="24.4.3" type="google">
  <diagram name="Page-1" id="mfvF1i8Ni3RD2kmJohUu">
    <mxGraphModel grid="1" page="1" gridSize="10" guides="1" tooltips="1" connect="1" arrows="1" fold="1" pageScale="1" pageWidth="827" pageHeight="1169" math="0" shadow="0">
      <root>
        <mxCell id="0" />
        <mxCell id="1" parent="0" />
        <mxCell id="fka_Ivsa0DvniqacogMy-2" value="Joueur" style="shape=umlActor;verticalLabelPosition=bottom;verticalAlign=top;html=1;" vertex="1" parent="1">
          <mxGeometry x="270" y="260" width="30" height="60" as="geometry" />
        </mxCell>
        <mxCell id="fka_Ivsa0DvniqacogMy-3" value="Admin" style="shape=umlActor;verticalLabelPosition=bottom;verticalAlign=top;html=1;" vertex="1" parent="1">
          <mxGeometry x="270" y="130" width="30" height="60" as="geometry" />
        </mxCell>
        <mxCell id="fka_Ivsa0DvniqacogMy-5" value="Doggo&#39;s jump" style="swimlane;" vertex="1" parent="1">
          <mxGeometry x="320" y="40" width="370" height="410" as="geometry" />
        </mxCell>
        <mxCell id="fka_Ivsa0DvniqacogMy-6" value="Score" style="ellipse;whiteSpace=wrap;html=1;align=center;newEdgeStyle={&quot;edgeStyle&quot;:&quot;entityRelationEdgeStyle&quot;,&quot;startArrow&quot;:&quot;none&quot;,&quot;endArrow&quot;:&quot;none&quot;,&quot;segment&quot;:10,&quot;curved&quot;:1,&quot;sourcePerimeterSpacing&quot;:0,&quot;targetPerimeterSpacing&quot;:0};treeFolding=1;treeMoving=1;" vertex="1" parent="fka_Ivsa0DvniqacogMy-5">
          <mxGeometry x="60" y="50" width="140" height="80" as="geometry" />
        </mxCell>
        <mxCell id="fka_Ivsa0DvniqacogMy-8" value="Classement" style="ellipse;whiteSpace=wrap;html=1;align=center;newEdgeStyle={&quot;edgeStyle&quot;:&quot;entityRelationEdgeStyle&quot;,&quot;startArrow&quot;:&quot;none&quot;,&quot;endArrow&quot;:&quot;none&quot;,&quot;segment&quot;:10,&quot;curved&quot;:1,&quot;sourcePerimeterSpacing&quot;:0,&quot;targetPerimeterSpacing&quot;:0};treeFolding=1;treeMoving=1;" vertex="1" parent="fka_Ivsa0DvniqacogMy-5">
          <mxGeometry x="170" y="130" width="160" height="90" as="geometry" />
        </mxCell>
        <mxCell id="fka_Ivsa0DvniqacogMy-9" value="" style="endArrow=none;dashed=1;html=1;dashPattern=1 3;strokeWidth=2;rounded=0;entryX=0.629;entryY=0.95;entryDx=0;entryDy=0;entryPerimeter=0;exitX=0.428;exitY=-0.011;exitDx=0;exitDy=0;exitPerimeter=0;" edge="1" parent="fka_Ivsa0DvniqacogMy-5" source="fka_Ivsa0DvniqacogMy-8" target="fka_Ivsa0DvniqacogMy-6">
          <mxGeometry width="50" height="50" relative="1" as="geometry">
            <mxPoint x="70" y="290" as="sourcePoint" />
            <mxPoint x="120" y="240" as="targetPoint" />
          </mxGeometry>
        </mxCell>
        <mxCell id="fka_Ivsa0DvniqacogMy-7" value="Jeu&lt;div&gt;( Physique, Graphisme)&lt;/div&gt;" style="ellipse;whiteSpace=wrap;html=1;align=center;newEdgeStyle={&quot;edgeStyle&quot;:&quot;entityRelationEdgeStyle&quot;,&quot;startArrow&quot;:&quot;none&quot;,&quot;endArrow&quot;:&quot;none&quot;,&quot;segment&quot;:10,&quot;curved&quot;:1,&quot;sourcePerimeterSpacing&quot;:0,&quot;targetPerimeterSpacing&quot;:0};treeFolding=1;treeMoving=1;" vertex="1" parent="1">
          <mxGeometry x="360" y="280" width="160" height="90" as="geometry" />
        </mxCell>
        <mxCell id="fka_Ivsa0DvniqacogMy-10" value="" style="endArrow=none;html=1;rounded=0;exitX=0.617;exitY=0.625;exitDx=0;exitDy=0;exitPerimeter=0;entryX=0;entryY=0.5;entryDx=0;entryDy=0;" edge="1" parent="1" source="fka_Ivsa0DvniqacogMy-2" target="fka_Ivsa0DvniqacogMy-7">
          <mxGeometry width="50" height="50" relative="1" as="geometry">
            <mxPoint x="390" y="330" as="sourcePoint" />
            <mxPoint x="440" y="280" as="targetPoint" />
          </mxGeometry>
        </mxCell>
        <mxCell id="fka_Ivsa0DvniqacogMy-11" value="" style="endArrow=none;dashed=1;html=1;dashPattern=1 3;strokeWidth=2;rounded=0;entryX=-0.009;entryY=0.644;entryDx=0;entryDy=0;entryPerimeter=0;exitX=0.5;exitY=0.5;exitDx=0;exitDy=0;exitPerimeter=0;" edge="1" parent="1" source="fka_Ivsa0DvniqacogMy-2" target="fka_Ivsa0DvniqacogMy-8">
          <mxGeometry width="50" height="50" relative="1" as="geometry">
            <mxPoint x="390" y="330" as="sourcePoint" />
            <mxPoint x="440" y="280" as="targetPoint" />
          </mxGeometry>
        </mxCell>
        <mxCell id="fka_Ivsa0DvniqacogMy-12" value="" style="endArrow=none;html=1;rounded=0;entryX=0.5;entryY=0.5;entryDx=0;entryDy=0;entryPerimeter=0;exitX=0.019;exitY=0.333;exitDx=0;exitDy=0;exitPerimeter=0;" edge="1" parent="1" source="fka_Ivsa0DvniqacogMy-8" target="fka_Ivsa0DvniqacogMy-3">
          <mxGeometry width="50" height="50" relative="1" as="geometry">
            <mxPoint x="390" y="330" as="sourcePoint" />
            <mxPoint x="440" y="280" as="targetPoint" />
          </mxGeometry>
        </mxCell>
        <mxCell id="fka_Ivsa0DvniqacogMy-13" value="" style="endArrow=none;html=1;rounded=0;entryX=1;entryY=1;entryDx=0;entryDy=0;entryPerimeter=0;exitX=0.309;exitY=0.072;exitDx=0;exitDy=0;exitPerimeter=0;" edge="1" parent="1" source="fka_Ivsa0DvniqacogMy-7" target="fka_Ivsa0DvniqacogMy-3">
          <mxGeometry width="50" height="50" relative="1" as="geometry">
            <mxPoint x="390" y="330" as="sourcePoint" />
            <mxPoint x="440" y="280" as="targetPoint" />
          </mxGeometry>
        </mxCell>
        <mxCell id="fka_Ivsa0DvniqacogMy-15" value="Compte&lt;div&gt;(login,password)&lt;/div&gt;" style="ellipse;whiteSpace=wrap;html=1;align=center;newEdgeStyle={&quot;edgeStyle&quot;:&quot;entityRelationEdgeStyle&quot;,&quot;startArrow&quot;:&quot;none&quot;,&quot;endArrow&quot;:&quot;none&quot;,&quot;segment&quot;:10,&quot;curved&quot;:1,&quot;sourcePerimeterSpacing&quot;:0,&quot;targetPerimeterSpacing&quot;:0};treeFolding=1;treeMoving=1;" vertex="1" parent="1">
          <mxGeometry x="740" y="130" width="130" height="60" as="geometry" />
        </mxCell>
        <mxCell id="fka_Ivsa0DvniqacogMy-16" value="" style="endArrow=none;html=1;rounded=0;entryX=0;entryY=0.5;entryDx=0;entryDy=0;exitX=0.994;exitY=0.389;exitDx=0;exitDy=0;exitPerimeter=0;" edge="1" parent="1" source="fka_Ivsa0DvniqacogMy-8" target="fka_Ivsa0DvniqacogMy-15">
          <mxGeometry width="50" height="50" relative="1" as="geometry">
            <mxPoint x="520" y="320" as="sourcePoint" />
            <mxPoint x="570" y="270" as="targetPoint" />
          </mxGeometry>
        </mxCell>
      </root>
    </mxGraphModel>
  </diagram>
</mxfile>
